<?xml version="1.0" encoding="UTF-8"?><svg id="Layer_1" xmlns="http://www.w3.org/2000/svg" viewBox="0 0 1000.001 811.863"><defs><style>.cls-1{fill:#fff;}.cls-2{fill:#ff8787;}.cls-3{fill:#7fb0ec;}</style></defs><path class="cls-1" d="m961.609,188.961c51.19,51.19,51.19,134.185,0,185.375l-128.405,128.405-290.632,290.64c-24.641,24.642-64.593,24.642-89.235,0L166.239,506.283l-127.847-127.847c-51.189-51.189-51.19-134.183-.001-185.374L195.501,35.949c47.195-47.196,123.715-47.197,170.911-.001l112.791,112.791c12.314,12.314,32.278,12.314,44.592,0l113.342-113.342c47.195-47.195,123.714-47.195,170.909,0l153.564,153.564Z"/><path class="cls-2" d="m508.062,385.883l196.535-197.393c12.872-12.928,23.942-12.965,36.899-.121l73.99,73.346c12.957,12.844,13.017,23.913.201,36.899l-48.951,49.595c-4.272,4.328-4.26,8.026.041,12.326l61.076,61.077c4.3,4.3,7.986,4.3,12.286,0l67.831-67.831c51.602-51.602,51.561-95.792-.138-147.297l-110.99-110.576c-51.699-51.506-95.97-51.464-147.573.138l-215.522,215.522c-4.3,4.3-4.3,7.986,0,12.286l62.042,62.042c4.3,4.3,7.982,4.297,12.273-.014h0Z"/><path class="cls-3" d="m183.471,268.393l79.942-79.942c12.9-12.9,23.995-12.938,36.982-.125l47.661,47.026c4.329,4.271,8.027,4.259,12.327-.042l61.077-61.077c4.3-4.3,4.294-7.98-.02-12.266l-65.635-65.2c-51.774-51.43-96.077-51.357-147.679.245l-116.092,116.092c-51.602,51.602-51.624,95.855-.074,147.51l385.77,386.549c12.888,12.914,23.939,12.92,36.84.018l239.92-239.92c4.3-4.3,4.288-7.974-.04-12.246l-61.962-61.158c-4.328-4.272-8.026-4.26-12.326.041l-177.878,177.878c-4.3,4.3-7.986,4.3-12.286,0L183.471,305.251c-12.9-12.9-12.9-23.958,0-36.859h0Z"/></svg>