<svg width="36" height="36" viewBox="0 0 36 36" fill="none" xmlns="http://www.w3.org/2000/svg">
<rect width="36" height="36" rx="18" fill="#7289DA"/>
<rect width="16" height="16" transform="translate(10 10)" fill="white" fill-opacity="0.01"/>
<path d="M23.5449 12.907C22.5074 12.4308 21.4127 12.091 20.2879 11.896C20.2777 11.8942 20.2673 11.8957 20.258 11.9002C20.2486 11.9047 20.2409 11.9119 20.2359 11.921C20.0949 12.171 19.9389 12.498 19.8299 12.754C18.6175 12.57 17.3843 12.57 16.1719 12.754C16.0503 12.4688 15.9128 12.1907 15.7599 11.921C15.7548 11.912 15.7471 11.9049 15.7378 11.9004C15.7285 11.8959 15.7181 11.8944 15.7079 11.896C14.583 12.0902 13.4881 12.4301 12.4509 12.907C12.4421 12.9103 12.4346 12.9167 12.4299 12.925C10.3559 16.024 9.78692 19.047 10.0659 22.032C10.0669 22.046 10.0759 22.06 10.0869 22.069C11.2947 22.9636 12.6455 23.6466 14.0819 24.089C14.0921 24.0922 14.103 24.092 14.113 24.0886C14.1231 24.0852 14.1318 24.0787 14.1379 24.07C14.4459 23.65 14.7199 23.207 14.9559 22.741C14.9592 22.7346 14.961 22.7276 14.9614 22.7205C14.9617 22.7133 14.9605 22.7062 14.9578 22.6996C14.9552 22.693 14.9512 22.687 14.946 22.682C14.9408 22.6771 14.9347 22.6733 14.9279 22.671C14.4971 22.5054 14.0798 22.3064 13.6799 22.076C13.6726 22.0717 13.6665 22.0658 13.662 22.0586C13.6576 22.0514 13.655 22.0432 13.6545 22.0348C13.654 22.0264 13.6557 22.018 13.6592 22.0103C13.6628 22.0027 13.6682 21.996 13.6749 21.991C13.7589 21.928 13.8429 21.862 13.9229 21.796C13.93 21.7903 13.9385 21.7866 13.9475 21.7854C13.9564 21.7842 13.9656 21.7854 13.9739 21.789C16.5929 22.985 19.4279 22.985 22.0149 21.789C22.0235 21.7851 22.0331 21.7837 22.0424 21.785C22.0518 21.7862 22.0606 21.79 22.0679 21.796C22.1479 21.862 22.2319 21.928 22.3159 21.991C22.3227 21.9959 22.3282 22.0025 22.3318 22.0101C22.3355 22.0177 22.3372 22.0261 22.3368 22.0345C22.3364 22.043 22.3339 22.0511 22.3296 22.0584C22.3252 22.0656 22.3192 22.0716 22.3119 22.076C21.9129 22.3085 21.4951 22.5072 21.0629 22.67C21.0562 22.6725 21.0502 22.6765 21.0451 22.6816C21.04 22.6866 21.0361 22.6927 21.0336 22.6994C21.031 22.7061 21.0299 22.7133 21.0303 22.7204C21.0307 22.7276 21.0326 22.7346 21.0359 22.741C21.2759 23.206 21.5509 23.65 21.8529 24.07C21.859 24.0787 21.8677 24.0852 21.8778 24.0886C21.8879 24.092 21.8988 24.0922 21.9089 24.089C23.3477 23.648 24.7008 22.9649 25.9099 22.069C25.9159 22.0647 25.9209 22.0592 25.9246 22.0528C25.9282 22.0464 25.9304 22.0393 25.9309 22.032C26.2649 18.581 25.3719 15.583 23.5649 12.926C23.5631 12.9216 23.5604 12.9176 23.5569 12.9143C23.5535 12.9111 23.5494 12.9086 23.5449 12.907ZM15.3469 20.214C14.5579 20.214 13.9089 19.49 13.9089 18.602C13.9089 17.713 14.5459 16.989 15.3469 16.989C16.1539 16.989 16.7969 17.719 16.7849 18.602C16.7849 19.49 16.1479 20.214 15.3469 20.214ZM20.6629 20.214C19.8749 20.214 19.2249 19.49 19.2249 18.602C19.2249 17.713 19.8619 16.989 20.6629 16.989C21.4699 16.989 22.1139 17.719 22.1009 18.602C22.1009 19.49 21.4699 20.214 20.6629 20.214Z" fill="white"/>
</svg>
