<svg width="36" height="36" viewBox="0 0 36 36" fill="none" xmlns="http://www.w3.org/2000/svg">
<rect width="36" height="36" rx="18" fill="#FF8787"/>
<rect width="20" height="20" transform="translate(8 8)" fill="white" fill-opacity="0.01"/>
<path d="M10.6831 11.5669C10.439 11.3229 10.439 10.9271 10.6831 10.6831C10.9271 10.439 11.3229 10.439 11.5669 10.6831L18 17.1161L24.4331 10.6831C24.6771 10.439 25.0729 10.439 25.3169 10.6831C25.561 10.9271 25.561 11.3229 25.3169 11.5669L18.8839 18L25.3169 24.4331C25.561 24.6771 25.561 25.0729 25.3169 25.3169C25.0729 25.561 24.6771 25.561 24.4331 25.3169L18 18.8839L11.5669 25.3169C11.3229 25.561 10.9271 25.561 10.6831 25.3169C10.439 25.0729 10.439 24.6771 10.6831 24.4331L17.1161 18L10.6831 11.5669Z" fill="#212529"/>
</svg>
