<svg width="314" height="314" viewBox="0 0 314 314" fill="none" xmlns="http://www.w3.org/2000/svg">
<path d="M156.965 66.6964C151.623 66.6964 147.293 62.3663 147.293 57.0248V9.67163C147.293 4.33013 151.623 0 156.965 0C162.306 0 166.636 4.33013 166.636 9.67163V57.0248C166.636 62.3663 162.306 66.6964 156.965 66.6964Z" fill="url(#paint0_linear_95_632)"/>
<path d="M253.437 46.4094L238.956 46.4094C233.615 46.4094 229.285 42.0793 229.285 36.7378C229.285 31.3963 233.615 27.0662 238.956 27.0662L276.673 27.0661C279.238 27.0661 281.698 28.085 283.512 29.8988C285.326 31.7126 286.345 34.1726 286.345 36.7377L286.345 74.4544C286.345 79.7959 282.015 84.126 276.673 84.126C271.332 84.126 267.001 79.7959 267.001 74.4544L267.001 60.2002L234.231 92.9701C230.454 96.7471 224.331 96.7471 220.554 92.9701C216.777 89.1931 216.777 83.0694 220.554 79.2924L253.437 46.4094Z" fill="url(#paint1_linear_95_632)"/>
<path d="M46.7754 74.4327L46.7754 60.2039L59.0337 72.4622L55.4533 76.0447C51.6773 79.8227 51.6791 85.9465 55.4571 89.7224C59.2352 93.4984 65.3589 93.4967 69.1349 89.7186L72.7115 86.14L79.5344 92.9629C83.3114 96.7399 89.4351 96.7399 93.2121 92.9629C96.9891 89.1859 96.9891 83.0621 93.2121 79.2851L86.3854 72.4584L89.965 68.8767C93.7409 65.0987 93.7392 58.9749 89.9611 55.199C86.1831 51.4231 80.0593 51.4248 76.2834 55.2029L72.7076 58.7806L60.3438 46.4168L74.7913 46.4168C80.1328 46.4168 84.4629 42.0866 84.4629 36.7452C84.4629 31.4037 80.1327 27.0735 74.7912 27.0735L37.1037 27.0736C34.5386 27.0736 32.0786 28.0926 30.2648 29.9064C28.451 31.7202 27.4321 34.1802 27.4321 36.7453L27.4322 74.4328C27.4322 79.7742 31.7623 84.1044 37.1038 84.1044C42.4453 84.1043 46.7754 79.7742 46.7754 74.4327Z" fill="url(#paint2_linear_95_632)"/>
<path d="M156.965 227.89C196.136 227.89 227.89 196.136 227.89 156.965C227.89 117.794 196.136 86.0395 156.965 86.0395C117.794 86.0395 86.0395 117.794 86.0395 156.965C86.0395 196.136 117.794 227.89 156.965 227.89Z" fill="url(#paint3_linear_95_632)"/>
<path d="M256.905 147.293C251.563 147.293 247.233 151.623 247.233 156.965C247.233 162.306 251.563 166.637 256.905 166.637H304.258C309.6 166.637 313.93 162.306 313.93 156.965C313.93 151.623 309.6 147.293 304.258 147.293H256.905Z" fill="url(#paint4_linear_95_632)"/>
<path d="M220.118 221.685C223.896 217.908 230.019 217.908 233.796 221.685L267.28 255.169C271.057 258.946 271.057 265.069 267.28 268.846C263.503 272.623 257.379 272.623 253.602 268.846L220.118 235.363C216.341 231.586 216.341 225.462 220.118 221.685Z" fill="url(#paint5_linear_95_632)"/>
<path d="M171.701 290.249C177.042 290.247 181.371 285.916 181.37 280.575C181.368 275.233 177.037 270.904 171.695 270.906L166.636 270.907V256.905C166.636 251.563 162.306 247.233 156.965 247.233C151.623 247.233 147.293 251.563 147.293 256.905V270.913L142.229 270.914C136.887 270.915 132.558 275.247 132.56 280.588C132.561 285.93 136.893 290.259 142.234 290.257L147.293 290.256V304.258C147.293 309.6 151.623 313.93 156.965 313.93C162.306 313.93 166.636 309.6 166.636 304.258V290.25L171.701 290.249Z" fill="url(#paint6_linear_95_632)"/>
<path d="M9.67163 147.293C4.33013 147.293 0 151.623 0 156.965C0 162.306 4.33013 166.636 9.67163 166.636H57.0248C62.3663 166.636 66.6964 162.306 66.6964 156.965C66.6964 151.623 62.3663 147.293 57.0248 147.293H9.67163Z" fill="url(#paint7_linear_95_632)"/>
<path d="M47.0036 255.169C43.2266 258.946 43.2266 265.069 47.0036 268.846C50.7806 272.623 56.9044 272.623 60.6814 268.846L94.1651 235.363C97.9421 231.586 97.9421 225.462 94.1651 221.685C90.3881 217.908 84.2644 217.908 80.4873 221.685L47.0036 255.169Z" fill="url(#paint8_linear_95_632)"/>
<defs>
<linearGradient id="paint0_linear_95_632" x1="280" y1="34.5" x2="12.8262" y2="92.9207" gradientUnits="userSpaceOnUse">
<stop stop-color="#409CFF"/>
<stop offset="0.585409" stop-color="#D8B8FF"/>
<stop offset="1" stop-color="#FF68D5"/>
</linearGradient>
<linearGradient id="paint1_linear_95_632" x1="280" y1="34.5" x2="12.8262" y2="92.9207" gradientUnits="userSpaceOnUse">
<stop stop-color="#409CFF"/>
<stop offset="0.585409" stop-color="#D8B8FF"/>
<stop offset="1" stop-color="#FF68D5"/>
</linearGradient>
<linearGradient id="paint2_linear_95_632" x1="280" y1="34.5" x2="12.8262" y2="92.9207" gradientUnits="userSpaceOnUse">
<stop stop-color="#409CFF"/>
<stop offset="0.585409" stop-color="#D8B8FF"/>
<stop offset="1" stop-color="#FF68D5"/>
</linearGradient>
<linearGradient id="paint3_linear_95_632" x1="280" y1="34.5" x2="12.8262" y2="92.9207" gradientUnits="userSpaceOnUse">
<stop stop-color="#409CFF"/>
<stop offset="0.585409" stop-color="#D8B8FF"/>
<stop offset="1" stop-color="#FF68D5"/>
</linearGradient>
<linearGradient id="paint4_linear_95_632" x1="280" y1="34.5" x2="12.8262" y2="92.9207" gradientUnits="userSpaceOnUse">
<stop stop-color="#409CFF"/>
<stop offset="0.585409" stop-color="#D8B8FF"/>
<stop offset="1" stop-color="#FF68D5"/>
</linearGradient>
<linearGradient id="paint5_linear_95_632" x1="280" y1="34.5" x2="12.8262" y2="92.9207" gradientUnits="userSpaceOnUse">
<stop stop-color="#409CFF"/>
<stop offset="0.585409" stop-color="#D8B8FF"/>
<stop offset="1" stop-color="#FF68D5"/>
</linearGradient>
<linearGradient id="paint6_linear_95_632" x1="280" y1="34.5" x2="12.8262" y2="92.9207" gradientUnits="userSpaceOnUse">
<stop stop-color="#409CFF"/>
<stop offset="0.585409" stop-color="#D8B8FF"/>
<stop offset="1" stop-color="#FF68D5"/>
</linearGradient>
<linearGradient id="paint7_linear_95_632" x1="280" y1="34.5" x2="12.8262" y2="92.9207" gradientUnits="userSpaceOnUse">
<stop stop-color="#409CFF"/>
<stop offset="0.585409" stop-color="#D8B8FF"/>
<stop offset="1" stop-color="#FF68D5"/>
</linearGradient>
<linearGradient id="paint8_linear_95_632" x1="280" y1="34.5" x2="12.8262" y2="92.9207" gradientUnits="userSpaceOnUse">
<stop stop-color="#409CFF"/>
<stop offset="0.585409" stop-color="#D8B8FF"/>
<stop offset="1" stop-color="#FF68D5"/>
</linearGradient>
</defs>
</svg>
