<svg width="34" height="26" viewBox="0 0 34 26" fill="none" xmlns="http://www.w3.org/2000/svg">
<path d="M10.3663 1.7422C9.19441 0.498693 7.29445 0.498693 6.12259 1.7422L1.8789 6.24534C0.707034 7.48885 0.707034 9.50497 1.8789 10.7485L14.61 24.2579C15.1971 24.8809 15.967 25.1918 16.7365 25.1905C17.506 25.1918 18.2759 24.8809 18.863 24.2579L25.381 17.3415L23.2003 15.0275L16.7412 21.8815L16.7365 21.8765L16.7318 21.8815L4.00075 8.37205L8.24444 3.86891L11.3701 7.18563L13.4331 4.9965L10.3663 1.7422Z" fill="#70B2F1"/>
<path d="M16.7365 25.3881C17.5601 25.3894 18.3822 25.0563 19.0068 24.3934L25.5248 17.477L25.6525 17.3415L25.5248 17.2059L23.3441 14.8919L23.2003 14.7393L23.0565 14.8919L16.7412 21.5933L16.7365 21.5883L16.7318 21.5933L4.2723 8.37205L8.24444 4.15706L11.2262 7.32116L11.3701 7.47378L11.5139 7.32116L13.5769 5.13203L13.7046 4.9965L13.5769 4.86096L10.5101 1.60667C9.26022 0.280376 7.22864 0.280376 5.97877 1.60667L1.73508 6.1098C0.491479 7.42943 0.491479 9.56439 1.73508 10.884L14.4661 24.3934C15.0908 25.0563 15.9129 25.3894 16.7365 25.3881ZM16.7365 25.3881C16.7364 25.3881 16.7363 25.3881 16.7362 25.3881L16.7365 25.1905L16.7368 25.3881C16.7367 25.3881 16.7366 25.3881 16.7365 25.3881Z" stroke="#70B2F1" stroke-opacity="0.75" stroke-width="0.395244"/>
<path d="M14.7141 10.6316L16.835 12.8098L25.5582 3.85108L29.9174 8.32797L26.8663 11.4614L29.1064 13.7619L32.097 10.6906C33.3008 9.45429 33.3008 7.44992 32.097 6.21366L27.7378 1.73677C26.534 0.500505 24.5824 0.500505 23.3786 1.73677L16.835 8.45704L16.8333 8.45526L14.7141 10.6316Z" fill="#FF8787"/>
<path d="M14.5725 10.4938L14.4383 10.6316L14.5725 10.7695L16.6934 12.9477L16.835 13.0931L16.9766 12.9477L25.5582 4.13435L29.6416 8.32797L26.7247 11.3236L26.5905 11.4614L26.7247 11.5993L28.9648 13.8998L29.1064 14.0452L29.2479 13.8998L32.2386 10.8284C33.5171 9.51543 33.5171 7.38878 32.2386 6.07579L27.8794 1.5989C26.5981 0.282965 24.5184 0.282965 23.237 1.5989L16.835 8.17372L16.8333 8.17194L16.6917 8.31739L14.5725 10.4938Z" stroke="#FF8787" stroke-opacity="0.75" stroke-width="0.395244"/>
</svg>
