<svg width="20" height="31" viewBox="0 0 28 44" fill="none" xmlns="http://www.w3.org/2000/svg">
<path d="M14.1885 0.996095C17.4936 1.00398 20.8187 2.08885 23.3124 4.38863C25.7978 6.68069 27.5 10.2186 27.5 15.2224C27.5 16.8476 26.6811 19.3908 25.3861 22.3611C24.1021 25.3062 22.3865 28.5925 20.6657 31.6706C18.9458 34.7472 17.2252 37.6078 15.9343 39.6997C15.289 40.7455 14.7513 41.5987 14.3751 42.1902C14.3091 42.294 14.2481 42.3897 14.1923 42.477C14.1365 42.3897 14.0754 42.2939 14.0093 42.1901C13.6329 41.5986 13.0949 40.7454 12.4492 39.6996C11.1576 37.6077 9.43604 34.7471 7.71515 31.6705C5.99336 28.5924 4.27678 25.3061 2.99207 22.361C1.69633 19.3907 0.876953 16.8475 0.876953 15.2224C0.876953 10.2186 2.57917 6.68069 5.06451 4.38863C7.55823 2.08885 10.8834 1.00398 14.1885 0.996095ZM14.1964 9.34877C11.2741 9.34877 8.90878 11.7161 8.90878 14.6394C8.90878 17.5621 11.2736 19.9299 14.1885 19.9299C17.1096 19.9299 19.4839 17.5637 19.4839 14.6394C19.4839 11.7161 17.1186 9.34877 14.1964 9.34877Z" fill="url(#paint0_linear_89_54)" stroke="white"/>
<defs>
<linearGradient id="paint0_linear_89_54" x1="27.9878" y1="21.8839" x2="0.326089" y2="21.8839" gradientUnits="userSpaceOnUse">
<stop stop-color="#FF8787"/>
<stop offset="0.479534" stop-color="#FFD6D6"/>
<stop offset="0.486214" stop-color="white"/>
<stop offset="0.512934" stop-color="white"/>
<stop offset="0.516274" stop-color="#C3DFF9"/>
<stop offset="1" stop-color="#70B2F1"/>
</linearGradient>
</defs>
</svg>
