<svg width="28" height="28" viewBox="0 0 28 28" fill="none" xmlns="http://www.w3.org/2000/svg">
<rect width="28" height="28" fill="white" fill-opacity="0.01"/>
<path fill-rule="evenodd" clip-rule="evenodd" d="M3.5 21.875C3.5 21.3918 3.89175 21 4.375 21H23.625C24.1082 21 24.5 21.3918 24.5 21.875C24.5 22.3582 24.1082 22.75 23.625 22.75H4.375C3.89175 22.75 3.5 22.3582 3.5 21.875Z" fill="#212529"/>
<path fill-rule="evenodd" clip-rule="evenodd" d="M3.5 16.625C3.5 16.1418 3.89175 15.75 4.375 15.75H23.625C24.1082 15.75 24.5 16.1418 24.5 16.625C24.5 17.1082 24.1082 17.5 23.625 17.5H4.375C3.89175 17.5 3.5 17.1082 3.5 16.625Z" fill="#212529"/>
<path fill-rule="evenodd" clip-rule="evenodd" d="M3.5 11.375C3.5 10.8918 3.89175 10.5 4.375 10.5H23.625C24.1082 10.5 24.5 10.8918 24.5 11.375C24.5 11.8582 24.1082 12.25 23.625 12.25H4.375C3.89175 12.25 3.5 11.8582 3.5 11.375Z" fill="#212529"/>
<path fill-rule="evenodd" clip-rule="evenodd" d="M3.5 6.125C3.5 5.64175 3.89175 5.25 4.375 5.25H23.625C24.1082 5.25 24.5 5.64175 24.5 6.125C24.5 6.60825 24.1082 7 23.625 7H4.375C3.89175 7 3.5 6.60825 3.5 6.125Z" fill="#212529"/>
</svg>
