<svg width="20" height="22" viewBox="0 0 20 22" fill="none" xmlns="http://www.w3.org/2000/svg">
<path fill-rule="evenodd" clip-rule="evenodd" d="M7.10526 14.9154C8.63159 14.9154 10.0455 14.4341 11.2035 13.615L13.0808 15.4923L12.866 15.7071C12.6605 15.9127 12.6605 16.2459 12.866 16.4515L17.4249 21.0104C17.6305 21.2159 17.9637 21.2159 18.1693 21.0104L18.3841 20.7956L18.8835 21.295L20 20.1785L19.5006 19.6791L19.6538 19.5259C19.8593 19.3203 19.8593 18.9871 19.6538 18.7816L15.0948 14.2226C14.8893 14.0171 14.5561 14.0171 14.3505 14.2226L14.1973 14.3758L12.3857 12.5643C13.5201 11.3052 14.2105 9.63826 14.2105 7.8101C14.2105 3.88597 11.0294 0.704834 7.10526 0.704834C3.18113 0.704834 0 3.88597 0 7.8101C0 11.7342 3.18113 14.9154 7.10526 14.9154ZM7.10526 13.3364C10.1574 13.3364 12.6316 10.8622 12.6316 7.8101C12.6316 4.758 10.1574 2.28378 7.10526 2.28378C4.05316 2.28378 1.57895 4.758 1.57895 7.8101C1.57895 10.8622 4.05316 13.3364 7.10526 13.3364Z" fill="#21242B"/>
</svg>
