<svg xmlns="http://www.w3.org/2000/svg" viewBox="0 0 1000 1000">
<!-- pink section --><path fill="#FF8787" d="M508.35,491.622l203.6-204.489c13.335-13.393,24.803-13.431,38.225-0.125l76.65,75.983c13.423,13.306,13.485,24.773,0.208,38.225l-50.711,51.378c-4.426,4.484-4.413,8.315,0.042,12.769l63.272,63.272c4.455,4.455,8.273,4.455,12.728,0l70.269-70.269c53.457-53.457,53.414-99.235-0.143-152.592l-114.98-114.551c-53.557-53.357-99.42-53.314-152.878,0.143l-223.269,223.269c-4.455,4.455-4.455,8.273,0,12.728l64.272,64.272c4.455,4.455,8.269,4.451,12.714-0.014Z"></path>
<!-- blue section --><path fill="#7FB0EC" d="M172.092,369.908l82.816-82.816c13.364-13.364,24.858-13.403,38.311-0.129l49.374,48.716c4.485,4.425,8.316,4.412,12.77-0.043l63.272-63.272c4.455-4.455,4.448-8.267-0.021-12.707l-67.994-67.544c-53.635-53.279-99.531-53.203-152.988,0.254l-120.265,120.265c-53.457,53.457-53.48,99.301-0.077,152.812l399.637,400.444c13.351,13.378,24.8,13.384,38.164,0.019l248.544-248.544c4.455-4.455,4.442-8.261-0.041-12.686l-64.189-63.356c-4.484-4.426-8.315-4.413-12.769,0.042l-184.272,184.272c-4.455,4.455-8.273,4.455-12.728,0l-317.544-317.544c-13.364-13.364-13.364-24.819,0-38.184Z"></path>
</svg>