<svg width="1166" height="1103" viewBox="0 0 1166 1103" fill="none" xmlns="http://www.w3.org/2000/svg">
<path d="M592.289 527.215L813.532 305.398C828.028 290.873 840.482 290.83 855.065 305.267L938.357 387.685C952.94 402.123 953.005 414.554 938.585 429.155L883.481 484.888C878.667 489.748 878.688 493.913 883.524 498.74L952.277 567.372C957.124 572.209 961.264 572.209 966.11 567.372L1042.47 491.147C1100.56 433.158 1100.51 383.509 1042.32 325.628L917.374 201.372C859.172 143.49 809.338 143.545 751.245 201.524L508.627 443.712C503.791 448.539 503.791 452.683 508.627 457.521L578.466 527.236C583.302 532.063 587.453 532.063 592.278 527.226L592.289 527.215Z" fill="#FF8787" stroke="#FDA9A9" stroke-width="15" stroke-miterlimit="10"/>
<path d="M227.528 394.43L317.532 304.48C332.051 289.97 344.548 289.926 359.165 304.339L412.817 357.253C417.686 362.054 421.859 362.043 426.695 357.21L495.453 288.493C500.289 283.659 500.289 279.511 495.431 274.688L421.544 201.334C363.251 143.467 313.38 143.554 255.283 201.605L124.592 332.219C66.4947 390.281 66.473 440.067 124.505 498.184L558.81 933.098C573.318 947.63 585.761 947.63 600.28 933.12L870.378 663.183C875.225 658.339 875.203 654.212 870.335 649.401L800.577 580.586C795.708 575.774 791.535 575.796 786.699 580.629L586.446 780.763C581.61 785.607 577.458 785.607 572.611 780.763L227.528 435.908C213.009 421.398 213.009 408.951 227.528 394.441V394.43Z" fill="#70B2F1" stroke="#9ACDF9" stroke-width="15" stroke-miterlimit="10"/>
</svg>
